<svg width="520" height="520" viewBox="0 0 520 520" fill="none" xmlns="http://www.w3.org/2000/svg">
    <defs>
        <linearGradient id="heroGradient" x1="40" y1="480" x2="480" y2="40" gradientUnits="userSpaceOnUse">
            <stop offset="0%" stop-color="#667EEA" />
            <stop offset="100%" stop-color="#764BA2" />
        </linearGradient>
        <linearGradient id="accentGradient" x1="120" y1="460" x2="400" y2="140" gradientUnits="userSpaceOnUse">
            <stop offset="0%" stop-color="#4FACFE" stop-opacity="0.9" />
            <stop offset="100%" stop-color="#00F2FE" stop-opacity="0.6" />
        </linearGradient>
        <radialGradient id="glow" cx="0" cy="0" r="1" gradientUnits="userSpaceOnUse" gradientTransform="translate(260 260) rotate(90) scale(260)">
            <stop stop-color="#FFFFFF" stop-opacity="0.18" />
            <stop offset="1" stop-color="#0A0A0F" stop-opacity="0" />
        </radialGradient>
        <filter id="shadow" x="-20" y="-20" width="560" height="560" filterUnits="userSpaceOnUse" color-interpolation-filters="sRGB">
            <feDropShadow dx="0" dy="24" stdDeviation="32" flood-color="#4FACFE" flood-opacity="0.15" />
        </filter>
    </defs>

    <rect x="40" y="40" width="440" height="440" rx="48" fill="url(#heroGradient)" opacity="0.35" />
    <rect x="80" y="80" width="360" height="360" rx="40" fill="url(#accentGradient)" filter="url(#shadow)" opacity="0.55" />
    <rect x="130" y="130" width="260" height="260" rx="32" fill="#0A0A0F" opacity="0.75" />

    <g opacity="0.75" stroke="#6EE7B7" stroke-width="2">
        <path d="M160 240C160 206.863 186.863 180 220 180H300C333.137 180 360 206.863 360 240V300C360 333.137 333.137 360 300 360H220C186.863 360 160 333.137 160 300V240Z" />
        <path d="M220 212H300" />
        <path d="M220 244H340" />
        <path d="M220 276H320" />
        <path d="M220 308H300" />
    </g>

    <circle cx="180" cy="200" r="22" fill="#8B5CF6" opacity="0.8" />
    <circle cx="360" cy="320" r="18" fill="#22D3EE" opacity="0.8" />
    <circle cx="200" cy="360" r="14" fill="#F472B6" opacity="0.8" />

    <g stroke="#A855F7" stroke-width="1.5" stroke-linecap="round" opacity="0.6">
        <path d="M140 160L200 120" />
        <path d="M320 140L380 110" />
        <path d="M360 380L410 420" />
        <path d="M120 320L150 370" />
    </g>

    <circle cx="260" cy="260" r="220" fill="url(#glow)" />

    <g opacity="0.9">
        <path d="M200 240H340" stroke="#A5B4FC" stroke-width="3" stroke-linecap="round" />
        <path d="M200 272H320" stroke="#C4B5FD" stroke-width="3" stroke-linecap="round" />
        <path d="M200 304H300" stroke="#E879F9" stroke-width="3" stroke-linecap="round" />
    </g>
</svg>
